<?xml version="1.0" encoding="utf-8"?>
<!-- Generator: Adobe Illustrator 16.0.0, SVG Export Plug-In . SVG Version: 6.00 Build 0)  -->
<!DOCTYPE svg PUBLIC "-//W3C//DTD SVG 1.1//EN" "http://www.w3.org/Graphics/SVG/1.1/DTD/svg11.dtd">
<svg version="1.1" id="Layer_1" xmlns="http://www.w3.org/2000/svg" xmlns:xlink="http://www.w3.org/1999/xlink" x="0px" y="0px"
	 width="40px" height="40px" viewBox="236 236 40 40" enable-background="new 236 236 40 40" xml:space="preserve">
<title>ShortfundlyLogoRed</title>
<desc>Created with Sketch.</desc>
<g id="Page-1">
	<g id="ShortfundlyLogoRed">
		<rect id="Rectangle-3" x="236" y="236" fill="#D0021B" width="40" height="40"/>
		<g id="Group">
			<path id="s" fill="#FFFFFF" d="M261.469,258.908c0,1.479-0.514,2.605-1.541,3.38c-1.027,0.773-2.564,1.161-4.611,1.161
				c-1.049,0-1.943-0.071-2.683-0.213c-0.74-0.143-1.432-0.351-2.077-0.626v-3.25c0.731,0.344,1.554,0.632,2.47,0.864
				c0.916,0.231,1.722,0.348,2.418,0.348c1.428,0,2.142-0.412,2.142-1.238c0-0.31-0.095-0.561-0.284-0.754s-0.516-0.413-0.98-0.658
				c-0.464-0.245-1.083-0.531-1.857-0.857c-1.109-0.465-1.924-0.895-2.444-1.29s-0.898-0.849-1.135-1.361
				c-0.236-0.511-0.354-1.141-0.354-1.89c0-1.281,0.497-2.272,1.49-2.973s2.401-1.051,4.224-1.051c1.737,0,3.427,0.378,5.068,1.135
				l-1.187,2.837c-0.722-0.31-1.396-0.563-2.024-0.761s-1.269-0.296-1.922-0.296c-1.161,0-1.741,0.314-1.741,0.941
				c0,0.353,0.187,0.658,0.561,0.916c0.374,0.258,1.193,0.641,2.457,1.148c1.127,0.456,1.952,0.881,2.477,1.277
				s0.912,0.852,1.161,1.367S261.469,258.195,261.469,258.908z"/>
			<rect id="Rectangle-2-Copy-5" x="260.844" y="243.031" fill="#FFFFFF" width="8.125" height="3.125"/>
			<rect id="Rectangle-2-Copy-4" x="265.844" y="243.031" fill="#FFFFFF" width="3.125" height="8.125"/>
		</g>
	</g>
</g>
</svg>
